<svg width="122" height="118" viewBox="0 0 122 118" fill="none" xmlns="http://www.w3.org/2000/svg">
    <path fill-rule="evenodd" clip-rule="evenodd" d="M22.4096 82.3961C22.4096 82.3961 22.4095 82.3963 22.5404 82.4696C22.6118 82.6015 22.6119 82.6015 22.6119 82.6015L22.6192 82.5975L22.6417 82.5854L22.7302 82.5381C22.8081 82.4967 22.923 82.4359 23.0708 82.3587C23.3663 82.2043 23.7931 81.9844 24.3182 81.7225C25.3684 81.1985 26.8107 80.5066 28.3796 79.8348C29.949 79.1628 31.6421 78.5121 33.1946 78.0692C34.7528 77.6247 36.1483 77.3961 37.132 77.5498L37.1784 77.2534C36.1258 77.0889 34.6762 77.3346 33.1123 77.7807C31.5427 78.2284 29.8367 78.8845 28.2615 79.559C26.6857 80.2338 25.2379 80.9283 24.1843 81.454C23.6573 81.7169 23.2288 81.9377 22.9319 82.0928C22.9251 82.0963 22.9183 82.0999 22.9117 82.1033C22.9567 82.0198 23.0075 81.9252 23.0632 81.8204C23.3075 81.3613 23.6488 80.7058 24.0372 79.9195C24.8137 78.3474 25.7798 76.2498 26.5354 74.1524C27.289 72.0602 27.8406 69.9486 27.772 68.3559C27.7377 67.5586 27.5473 66.8709 27.1283 66.3832C26.7046 65.89 26.0673 65.6242 25.1921 65.6327L25.195 65.9327C26.0047 65.9248 26.5481 66.1682 26.9007 66.5786C27.258 66.9945 27.4394 67.6049 27.4723 68.3688C27.5381 69.8988 27.0052 71.9631 26.2531 74.0507C25.5029 76.1333 24.5422 78.2197 23.7682 79.7866C23.3813 80.5698 23.0415 81.2226 22.7984 81.6795C22.6768 81.9079 22.5795 82.0873 22.5126 82.2095C22.4792 82.2706 22.4534 82.3174 22.4359 82.3489L22.4161 82.3844L22.4096 82.3961ZM22.5404 82.4696L22.6119 82.6015L22.1562 82.848L22.4096 82.3961L22.5404 82.4696Z" fill="white"/>
    <path fill-rule="evenodd" clip-rule="evenodd" d="M60.803 46.1122C47.9195 53.056 36.4216 62.813 29.4707 74.0642L29.7259 74.2219C36.6422 63.0266 48.095 53.3022 60.9453 46.3763C73.7957 39.4503 88.0299 35.3302 100.5 35.3302V35.0302C87.9694 35.0302 73.6865 39.1683 60.803 46.1122Z" fill="white"/>
</svg>
