<svg viewBox="0 0 283 83" fill="none" xmlns="http://www.w3.org/2000/svg">
    <path d="M282.252 29.8915C282.68 35.0371 279.332 40.3689 272.619 45.6154C265.925 50.8467 255.997 55.9008 243.547 60.4942C218.653 69.6786 183.787 76.9815 144.854 80.2127C105.921 83.444 70.3287 81.9888 44.2617 77.034C31.2245 74.5559 20.5991 71.2077 13.1344 67.1514C5.64819 63.0834 1.46759 58.3764 1.04052 53.2308C0.61345 48.0851 3.96088 42.7533 10.674 37.5069C17.3679 32.2755 27.296 27.2214 39.7462 22.628C64.6398 13.4436 99.5055 6.14076 138.439 2.90949C177.372 -0.32178 212.964 1.13336 239.031 6.08822C252.068 8.56633 262.694 11.9146 270.159 15.9708C277.645 20.0388 281.825 24.7458 282.252 29.8915Z" stroke="white"/>
</svg>
